<svg xmlns="http://www.w3.org/2000/svg" width="1500" height="104" viewBox="0 0 1500 104">
  <defs>
    <style>
      .cls-1, .cls-2 {
        fill: #fff;
      }

      .cls-1 {
        fill-rule: evenodd;
      }
    </style>
  </defs>
  <path id="Triangle_1" data-name="Triangle 1" class="cls-1" d="M37.969,13.469l37.5,50h-75Zm75,0,37.5,50h-75Zm75,0,37.5,50h-75Zm75,0,37.5,50h-75Zm75,0,37.5,50h-75Zm75,0,37.5,50h-75Zm75,0,37.5,50h-75Zm75,0,37.5,50h-75Zm75,0,37.5,50h-75Zm75,0,37.5,50h-75Zm75,0,37.5,50h-75Zm75,0,37.5,50h-75Zm75,0,37.5,50h-75Zm75,0,37.5,50h-75Zm75,0,37.5,50h-75Zm75,0,37.5,50h-75Zm75,0,37.5,50h-75Zm75,0,37.5,50h-75Zm75,0,37.5,50h-75Zm75,0,37.5,50h-75Z"/>
  <rect class="cls-2" y="63" width="1500" height="41"/>
</svg>
